<?xml version="1.0" encoding="UTF-8"?>
<svg xmlns="http://www.w3.org/2000/svg" xmlns:xlink="http://www.w3.org/1999/xlink" width="35px" height="35px" viewBox="0 0 35 35" version="1.1">
<g id="surface1">
<path style=" stroke:none;fill-rule:nonzero;fill:rgb(80.784314%,90.980392%,98.039216%);fill-opacity:1;" d="M 12.789062 12.058594 L 12.789062 23.550781 L 22.210938 23.550781 L 22.210938 12.058594 L 26.691406 12.058594 L 17.5 1.003906 L 8.308594 12.058594 Z M 12.789062 12.058594 "/>
<path style=" stroke:none;fill-rule:nonzero;fill:rgb(17.647059%,32.156863%,48.627451%);fill-opacity:1;" d="M 22.210938 24.554688 L 12.789062 24.554688 C 12.234375 24.554688 11.785156 24.105469 11.785156 23.550781 L 11.785156 13.0625 L 8.308594 13.0625 C 7.917969 13.0625 7.5625 12.835938 7.398438 12.484375 C 7.234375 12.128906 7.285156 11.714844 7.535156 11.414062 L 16.726562 0.363281 C 16.917969 0.132812 17.203125 0 17.5 0 C 17.796875 0 18.082031 0.132812 18.273438 0.363281 L 27.464844 11.414062 C 27.714844 11.714844 27.765625 12.128906 27.601562 12.484375 C 27.4375 12.835938 27.082031 13.0625 26.691406 13.0625 L 23.214844 13.0625 L 23.214844 23.550781 C 23.214844 24.105469 22.765625 24.554688 22.210938 24.554688 Z M 13.796875 22.542969 L 21.207031 22.542969 L 21.207031 12.058594 C 21.207031 11.5 21.652344 11.054688 22.210938 11.054688 L 24.546875 11.054688 L 17.5 2.578125 L 10.453125 11.054688 L 12.789062 11.054688 C 13.347656 11.054688 13.796875 11.5 13.796875 12.058594 Z M 13.796875 22.542969 "/>
<path style=" stroke:none;fill-rule:nonzero;fill:rgb(17.647059%,32.156863%,48.627451%);fill-opacity:1;" d="M 31.761719 35 L 3.238281 35 C 2.683594 35 2.230469 34.546875 2.230469 33.996094 L 2.230469 22.746094 C 2.230469 22.191406 2.683594 21.742188 3.238281 21.742188 L 9.777344 21.742188 C 10.332031 21.742188 10.785156 22.191406 10.785156 22.746094 L 10.785156 25.757812 L 19.878906 25.757812 C 20.433594 25.757812 20.878906 26.210938 20.878906 26.761719 C 20.878906 27.320312 20.433594 27.769531 19.878906 27.769531 L 9.777344 27.769531 C 9.222656 27.769531 8.773438 27.320312 8.773438 26.761719 L 8.773438 23.75 L 4.242188 23.75 L 4.242188 32.992188 L 30.757812 32.992188 L 30.757812 23.75 L 26.226562 23.75 L 26.226562 26.761719 C 26.226562 27.320312 25.777344 27.769531 25.222656 27.769531 C 24.667969 27.769531 24.214844 27.320312 24.214844 26.761719 L 24.214844 22.746094 C 24.214844 22.191406 24.667969 21.742188 25.222656 21.742188 L 31.761719 21.742188 C 32.316406 21.742188 32.769531 22.191406 32.769531 22.746094 L 32.769531 33.996094 C 32.769531 34.546875 32.316406 35 31.761719 35 Z M 31.761719 35 "/>
</g>
</svg>
